<?xml version="1.0" encoding="UTF-8"?>
<!DOCTYPE svg PUBLIC "-//W3C//DTD SVG 1.1//EN" "http://www.w3.org/Graphics/SVG/1.1/DTD/svg11.dtd">
<svg width="225mm" height="93mm" viewBox="0 0 22500 9300" version="1.1" xmlns="http://www.w3.org/2000/svg" xmlns:xlink="http://www.w3.org/1999/xlink" stroke-width="28.222" stroke-linejoin="round" xml:space="preserve">
 <path fill="rgb(255,255,255)" stroke="none" d="M 11254,9270 L 0,9270 0,0 22507,0 22507,9270 11254,9270 Z"/>
 <path fill="none" stroke="rgb(179,179,179)" stroke-linejoin="round" d="M 12373,7457 L 3114,7457 3114,384 21633,384 21633,7457 12373,7457 Z"/>
 <path fill="none" stroke="rgb(179,179,179)" stroke-linejoin="round" d="M 3113,383 L 3113,7456"/>
 <path fill="none" stroke="rgb(179,179,179)" stroke-linejoin="round" d="M 5171,383 L 5171,7456"/>
 <path fill="none" stroke="rgb(179,179,179)" stroke-linejoin="round" d="M 7229,383 L 7229,7456"/>
 <path fill="none" stroke="rgb(179,179,179)" stroke-linejoin="round" d="M 9287,383 L 9287,7456"/>
 <path fill="none" stroke="rgb(179,179,179)" stroke-linejoin="round" d="M 11344,383 L 11344,7456"/>
 <path fill="none" stroke="rgb(179,179,179)" stroke-linejoin="round" d="M 13401,383 L 13401,7456"/>
 <path fill="none" stroke="rgb(179,179,179)" stroke-linejoin="round" d="M 15459,383 L 15459,7456"/>
 <path fill="none" stroke="rgb(179,179,179)" stroke-linejoin="round" d="M 17517,383 L 17517,7456"/>
 <path fill="none" stroke="rgb(179,179,179)" stroke-linejoin="round" d="M 19575,383 L 19575,7456"/>
 <path fill="none" stroke="rgb(179,179,179)" stroke-linejoin="round" d="M 21632,383 L 21632,7456"/>
 <path fill="none" stroke="rgb(179,179,179)" stroke-linejoin="round" d="M 21632,7456 L 3113,7456"/>
 <path fill="none" stroke="rgb(179,179,179)" stroke-linejoin="round" d="M 21632,6277 L 3113,6277"/>
 <path fill="none" stroke="rgb(179,179,179)" stroke-linejoin="round" d="M 21632,5098 L 3113,5098"/>
 <path fill="none" stroke="rgb(179,179,179)" stroke-linejoin="round" d="M 21632,3920 L 3113,3920"/>
 <path fill="none" stroke="rgb(179,179,179)" stroke-linejoin="round" d="M 21632,2741 L 3113,2741"/>
 <path fill="none" stroke="rgb(179,179,179)" stroke-linejoin="round" d="M 21632,1562 L 3113,1562"/>
 <path fill="none" stroke="rgb(179,179,179)" stroke-linejoin="round" d="M 21632,383 L 3113,383"/>
 <path fill="none" stroke="rgb(179,179,179)" stroke-linejoin="round" d="M 3113,7606 L 3113,7456"/>
 <path fill="none" stroke="rgb(179,179,179)" stroke-linejoin="round" d="M 3113,7606 L 3113,7456"/>
 <path fill="none" stroke="rgb(179,179,179)" stroke-linejoin="round" d="M 5171,7606 L 5171,7456"/>
 <path fill="none" stroke="rgb(179,179,179)" stroke-linejoin="round" d="M 5171,7606 L 5171,7456"/>
 <path fill="none" stroke="rgb(179,179,179)" stroke-linejoin="round" d="M 7229,7606 L 7229,7456"/>
 <path fill="none" stroke="rgb(179,179,179)" stroke-linejoin="round" d="M 7229,7606 L 7229,7456"/>
 <path fill="none" stroke="rgb(179,179,179)" stroke-linejoin="round" d="M 9287,7606 L 9287,7456"/>
 <path fill="none" stroke="rgb(179,179,179)" stroke-linejoin="round" d="M 9287,7606 L 9287,7456"/>
 <path fill="none" stroke="rgb(179,179,179)" stroke-linejoin="round" d="M 11344,7606 L 11344,7456"/>
 <path fill="none" stroke="rgb(179,179,179)" stroke-linejoin="round" d="M 11344,7606 L 11344,7456"/>
 <path fill="none" stroke="rgb(179,179,179)" stroke-linejoin="round" d="M 13401,7606 L 13401,7456"/>
 <path fill="none" stroke="rgb(179,179,179)" stroke-linejoin="round" d="M 13401,7606 L 13401,7456"/>
 <path fill="none" stroke="rgb(179,179,179)" stroke-linejoin="round" d="M 15459,7606 L 15459,7456"/>
 <path fill="none" stroke="rgb(179,179,179)" stroke-linejoin="round" d="M 15459,7606 L 15459,7456"/>
 <path fill="none" stroke="rgb(179,179,179)" stroke-linejoin="round" d="M 17517,7606 L 17517,7456"/>
 <path fill="none" stroke="rgb(179,179,179)" stroke-linejoin="round" d="M 17517,7606 L 17517,7456"/>
 <path fill="none" stroke="rgb(179,179,179)" stroke-linejoin="round" d="M 19575,7606 L 19575,7456"/>
 <path fill="none" stroke="rgb(179,179,179)" stroke-linejoin="round" d="M 19575,7606 L 19575,7456"/>
 <path fill="none" stroke="rgb(179,179,179)" stroke-linejoin="round" d="M 21632,7606 L 21632,7456"/>
 <path fill="none" stroke="rgb(179,179,179)" stroke-linejoin="round" d="M 21632,7606 L 21632,7456"/>
 <path fill="none" stroke="rgb(179,179,179)" stroke-linejoin="round" d="M 3113,7456 L 21632,7456"/>
 <path fill="none" stroke="rgb(179,179,179)" stroke-linejoin="round" d="M 2963,7456 L 3113,7456"/>
 <path fill="none" stroke="rgb(179,179,179)" stroke-linejoin="round" d="M 2963,7456 L 3113,7456"/>
 <path fill="none" stroke="rgb(179,179,179)" stroke-linejoin="round" d="M 2963,6277 L 3113,6277"/>
 <path fill="none" stroke="rgb(179,179,179)" stroke-linejoin="round" d="M 2963,6277 L 3113,6277"/>
 <path fill="none" stroke="rgb(179,179,179)" stroke-linejoin="round" d="M 2963,5098 L 3113,5098"/>
 <path fill="none" stroke="rgb(179,179,179)" stroke-linejoin="round" d="M 2963,5098 L 3113,5098"/>
 <path fill="none" stroke="rgb(179,179,179)" stroke-linejoin="round" d="M 2963,3920 L 3113,3920"/>
 <path fill="none" stroke="rgb(179,179,179)" stroke-linejoin="round" d="M 2963,3920 L 3113,3920"/>
 <path fill="none" stroke="rgb(179,179,179)" stroke-linejoin="round" d="M 2963,2741 L 3113,2741"/>
 <path fill="none" stroke="rgb(179,179,179)" stroke-linejoin="round" d="M 2963,2741 L 3113,2741"/>
 <path fill="none" stroke="rgb(179,179,179)" stroke-linejoin="round" d="M 2963,1562 L 3113,1562"/>
 <path fill="none" stroke="rgb(179,179,179)" stroke-linejoin="round" d="M 2963,1562 L 3113,1562"/>
 <path fill="none" stroke="rgb(179,179,179)" stroke-linejoin="round" d="M 2963,383 L 3113,383"/>
 <path fill="none" stroke="rgb(179,179,179)" stroke-linejoin="round" d="M 2963,383 L 3113,383"/>
 <path fill="none" stroke="rgb(179,179,179)" stroke-linejoin="round" d="M 3113,7456 L 3113,383"/>
 <path fill="none" stroke="rgb(0,69,134)" stroke-width="80" stroke-linejoin="round" d="M 5204,1134 L 5238,1150 5271,1165 5304,1180 5337,1195 5370,1211 5403,1226 5436,1241 5469,1257 5502,1272 5536,1287 5569,1302 5602,1317 5635,1333 5668,1348 5701,1363 5734,1378 5767,1393 5800,1409 5833,1424 5864,1439 5896,1452 5928,1466 5959,1480 5991,1494 6022,1508 6054,1522 6085,1536 6117,1549 6148,1563 6180,1577 6211,1591 6243,1605 6274,1618 6306,1632 6337,1646 6369,1660 6400,1674 6432,1687 6463,1701 6494,1715 6526,1729 6557,1742 6587,1756 6617,1768 6647,1781 6677,1793 6707,1806 6737,1818 6767,1831 6797,1843 6827,1855 6857,1868 6887,1880 6917,1893 6946,1905 6976,1918 7006,1930 7036,1943 7066,1955 7096,1967 7126,1980 7156,1992 7185,2005 7215,2017 7245,2029 7273,2042 7302,2053 7330,2064 7359,2075 7387,2087 7415,2098 7444,2109 7472,2120 7500,2131 7529,2143 7557,2154 7585,2165 7614,2176 7642,2187 7670,2198 7699,2210 7727,2221 7755,2232 7784,2243 7812,2254 7840,2265 7868,2276 7897,2288 7925,2299 7953,2310 7980,2321 8007,2331 8033,2341 8060,2351 8087,2361 8114,2371 8141,2381 8167,2391 8194,2401 8221,2411 8248,2421 8274,2431 8301,2441 8328,2451 8355,2461 8381,2471 8408,2480 8435,2490 8461,2500 8488,2510 8515,2520 8542,2530 8568,2540 8595,2550 8622,2560 8648,2570 8675,2580 8700,2589 8725,2598 8751,2607 8776,2616 8801,2625 8826,2634 8851,2642 8877,2651 8902,2660 8927,2669 8952,2678 8977,2687 9002,2695 9028,2704 9053,2713 9078,2722 9103,2731 9128,2739 9153,2748 9178,2757 9203,2766 9228,2774 9254,2783 9279,2792 9304,2801 9329,2810 9354,2818 9379,2827 9404,2836 9428,2844 9451,2852 9475,2860 9499,2867 9522,2875 9546,2883 9569,2891 9593,2898 9617,2906 9640,2914 9664,2922 9687,2929 9711,2937 9734,2945 9758,2953 9782,2960 9805,2968 9829,2976 9852,2983 9876,2991 9899,2999 9923,3007 9946,3014 9970,3022 9993,3030 10017,3037 10040,3045 10064,3053 10087,3060 10111,3068 10133,3075 10155,3082 10177,3089 10199,3096 10221,3103 10243,3109 10265,3116 10287,3123 10309,3130 10331,3136 10353,3143 10375,3150 10397,3157 10419,3163 10441,3170 10463,3177 10485,3183 10507,3190 10529,3197 10551,3204 10573,3210 10595,3217 10617,3224 10639,3230 10661,3237 10682,3244 10704,3250 10726,3257 10748,3264 10770,3271 10792,3277 10814,3284 10834,3290 10855,3296 10875,3302 10896,3308 10916,3314 10937,3320 10957,3325 10978,3331 10998,3337 11018,3343 11039,3349 11059,3355 11080,3360 11100,3366 11120,3372 11141,3378 11161,3384 11182,3389 11202,3395 11222,3401 11243,3407 11262,3412 11283,3418 11303,3424 11323,3430 11344,3436 11364,3441 11384,3447 11405,3453 11425,3459 11445,3464 11466,3470 11486,3476 11506,3482 11527,3487 11545,3493 11564,3498 11583,3503 11602,3508 11621,3513 11640,3518 11659,3523 11678,3528 11696,3533 11715,3538 11734,3543 11753,3548 11772,3552 11791,3557 11809,3562 11828,3567 11847,3572 11866,3577 11885,3582 11904,3587 11922,3592 11941,3597 11960,3602 11979,3607 11998,3612 12016,3617 12035,3621 12054,3626 12073,3631 12091,3636 12110,3641 12129,3646 12148,3651 12166,3656 12185,3661 12204,3665 12223,3670 12241,3675 12259,3680 12276,3684 12293,3688 12310,3693 12328,3697 12345,3701 12362,3705 12380,3709 12397,3713 12414,3718 12431,3722 12449,3726 12466,3730 12483,3734 12500,3738 12518,3742 12535,3747 12552,3751 12569,3755 12587,3759 12604,3763 12621,3767 12638,3771 12656,3776 12673,3780 12690,3784 12707,3788 12724,3792 12742,3796 12759,3800 12776,3804 12793,3808 12810,3813 12827,3817 12845,3821 12862,3825 12879,3829 12896,3833 12913,3837 12930,3841 12948,3845 12965,3849 12980,3853 12996,3857 13012,3860 13028,3864 13043,3867 13059,3871 13075,3874 13090,3877 13106,3881 13122,3884 13137,3888 13153,3891 13169,3895 13184,3898 13200,3901 13216,3905 13231,3908 13247,3912 13263,3915 13278,3919 13294,3922 13310,3925 13325,3929 13341,3932 13357,3936 13372,3939 13388,3942 13404,3946 13419,3949 13435,3953 13450,3956 13466,3959 13482,3963 13497,3966 13513,3970 13528,3973 13544,3976 13560,3980 13575,3983 13591,3986 13606,3990 13622,3993 13637,3997 13653,4000 13669,4003 13684,4007 13698,4010 13712,4013 13727,4015 13741,4018 13755,4021 13769,4024 13783,4027 13797,4029 13811,4032 13825,4035 13840,4038 13854,4040 13868,4043 13882,4046 13896,4049 13910,4051 13924,4054 13938,4057 13952,4060 13966,4063 13980,4065 13995,4068 14009,4071 14023,4074 14037,4076 14051,4079 14065,4082 14079,4085 14093,4087 14107,4090 14121,4093 14135,4096 14149,4098 14163,4101 14177,4104 14191,4107 14205,4109 14219,4112 14233,4115 14247,4117 14261,4120 14275,4123 14289,4126 14303,4128 14317,4131 14331,4134 14345,4137 14359,4139 14373,4142 14387,4145 14401,4147 14414,4150 14426,4152 14439,4154 14464,4159 14476,4161 14489,4163 14502,4165 14514,4167 14527,4170 14539,4172 14552,4174 14564,4176 14577,4178 14602,4183 14614,4185 14627,4187 14639,4189 14652,4192 14664,4194 14677,4196 14689,4198 14702,4200 14714,4202 14739,4207 14752,4209 14764,4211 14777,4213 14789,4215 14802,4218 14814,4220 14827,4222 14839,4224 14852,4226 14876,4231 14889,4233 14901,4235 14914,4237 14926,4239 14939,4241 14951,4243 14964,4246 14976,4248 14988,4250 15001,4252 15013,4254 15026,4256 15038,4259 15050,4261 15063,4263 15075,4265 15088,4267 15100,4269 15112,4271 15134,4275 15145,4277 15156,4278 15167,4280 15189,4283 15200,4285 15211,4287 15222,4289 15244,4292 15255,4294 15266,4295 15277,4297 15299,4300 15310,4302 15321,4304 15332,4305 15354,4309 15364,4310 15375,4312 15386,4314 15408,4317 15419,4318 15430,4320 15452,4323 15463,4325 15474,4327 15484,4328 15506,4332 15517,4333 15528,4335 15539,4337 15561,4340 15572,4342 15582,4343 15593,4345 15615,4348 15626,4350 15637,4351 15648,4353 15669,4356 15680,4358 15691,4360 15702,4361 15724,4365 15734,4366 15745,4368 15767,4371 15778,4373 15789,4374 15799,4376 15821,4379 15832,4381 15841,4382 15851,4384 15860,4385 15869,4386 15888,4389 15898,4390 15916,4392 15926,4394 15935,4395 15954,4397 15963,4398 15982,4401 15991,4402 16010,4405 16020,4406 16038,4408 16048,4409 16057,4411 16066,4412 16076,4413 16094,4415 16104,4417 16122,4419 16132,4420 16141,4422 16160,4424 16169,4425 16188,4428 16197,4429 16216,4431 16225,4432 16244,4435 16253,4436 16262,4437 16271,4438 16281,4440 16299,4442 16309,4443 16327,4446 16337,4447 16355,4449 16364,4450 16383,4453 16392,4454 16411,4456 16420,4458 16439,4460 16448,4461 16457,4462 16466,4464 16476,4465 16485,4466 16503,4468 16513,4470 16531,4472 16540,4473 16557,4475 16565,4476 16573,4477 16581,4478 16596,4480 16612,4481 16628,4483 16636,4484 16651,4486 16667,4487 16682,4489 16690,4490 16698,4491 16706,4492 16721,4493 16737,4495 16752,4497 16760,4497 16776,4499 16791,4501 16807,4503 16815,4503 16830,4505 16846,4507 16861,4508 16869,4509 16884,4511 16900,4513 16915,4514 16931,4516 16939,4517 16954,4518 16970,4520 16985,4522 16993,4523 17008,4524 17024,4526 17039,4528 17054,4529 17062,4530 17078,4532 17093,4533 17108,4535 17116,4536 17131,4537 17147,4539 17162,4541 17178,4542 17185,4543 17201,4545 17216,4546 17231,4548 17247,4550 17254,4551 17270,4552 17282,4553 17295,4555 17307,4556 17313,4556 17326,4557 17338,4558 17351,4559 17363,4560 17382,4562 17394,4563 17407,4564 17419,4565 17438,4567 17450,4568 17463,4569 17475,4570 17487,4571 17506,4573 17518,4574 17531,4575 17543,4576 17555,4577 17574,4579 17586,4580 17599,4581 17611,4582 17630,4583 17642,4585 17654,4586 17666,4587 17679,4588 17697,4589 17710,4590 17722,4591 17734,4592 17753,4594 17765,4595 17771,4596 17777,4596 17789,4597 17808,4599 17820,4600 17832,4601 17844,4602 17863,4603 17875,4604 17887,4605 17899,4607 17918,4608 17924,4609 17930,4609 17942,4610 17954,4611 17972,4613 17985,4614 17999,4615 18013,4616 18022,4616 18036,4617 18050,4618 18064,4619 18078,4620 18092,4621 18106,4622 18120,4623 18134,4624 18148,4624 18161,4625 18175,4626 18189,4627 18203,4628 18217,4629 18231,4630 18245,4631 18258,4632 18272,4632 18286,4633 18300,4634 18309,4635 18314,4635 18327,4635 18341,4636 18355,4637 18369,4638 18383,4639 18396,4639 18410,4640 18424,4641 18437,4642 18451,4643 18465,4644 18478,4645 18492,4646 18506,4646 18519,4647 18533,4648 18547,4649 18560,4650 18574,4651 18588,4652 18601,4652 18615,4653 18628,4654 18642,4655 18655,4656 18669,4657 18682,4658 18696,4658 18711,4659 18723,4660 18739,4660 18751,4661 18763,4662 18779,4662 18791,4663 18806,4663 18819,4664 18834,4665 18846,4665 18862,4666 18874,4666 18889,4667 18901,4667 18917,4668 18929,4669 18944,4669 18956,4670 18971,4670 18984,4671 18999,4672 19011,4672 19026,4673 19038,4673 19050,4674 19053,4674 19068,4674 19080,4675 19095,4676 19107,4676 19122,4677 19134,4677 19149,4678 19164,4678 19176,4679 19191,4680 19203,4680 19218,4681 19233,4681 19245,4682 19259,4682 19271,4683 19286,4684 19301,4684 19313,4685 19328,4685 19342,4686 19354,4686 19369,4687 19383,4688 19395,4688 19410,4689 19423,4689 19437,4689 19450,4690 19464,4690 19478,4690 19491,4691 19505,4691 19518,4691 19533,4691 19547,4692 19560,4692 19574,4692 19587,4693 19602,4693 19615,4693 19628,4693 19643,4694 19656,4694 19669,4694 19684,4695 19697,4695 19712,4695 19725,4695 19738,4696 19752,4696 19765,4696 19780,4697 19794,4697 19807,4697 19821,4697 19834,4698 19848,4698 19863,4698 19875,4698 19890,4699 19904,4699 19918,4699 19930,4700 19944,4700 19958,4700 19960,4700 19972,4700 19986,4701 19999,4701 20013,4701 20027,4701 20040,4702 20054,4702 20068,4702 20082,4702 20095,4703 20109,4703 20122,4703 20137,4703"/>
 <text class="TextShape"><tspan class="TextParagraph" font-family="Liberation Sans, sans-serif" font-size="353px" font-weight="400"><tspan class="TextPosition" x="2597" y="8024"><tspan fill="rgb(0,0,0)" stroke="none">2,4045</tspan></tspan></tspan></text>
 <text class="TextShape"><tspan class="TextParagraph" font-family="Liberation Sans, sans-serif" font-size="353px" font-weight="400"><tspan class="TextPosition" x="4747" y="8024"><tspan fill="rgb(0,0,0)" stroke="none">2,405</tspan></tspan></tspan></text>
 <text class="TextShape"><tspan class="TextParagraph" font-family="Liberation Sans, sans-serif" font-size="353px" font-weight="400"><tspan class="TextPosition" x="6713" y="8024"><tspan fill="rgb(0,0,0)" stroke="none">2,4055</tspan></tspan></tspan></text>
 <text class="TextShape"><tspan class="TextParagraph" font-family="Liberation Sans, sans-serif" font-size="353px" font-weight="400"><tspan class="TextPosition" x="8863" y="8024"><tspan fill="rgb(0,0,0)" stroke="none">2,406</tspan></tspan></tspan></text>
 <text class="TextShape"><tspan class="TextParagraph" font-family="Liberation Sans, sans-serif" font-size="353px" font-weight="400"><tspan class="TextPosition" x="10829" y="8024"><tspan fill="rgb(0,0,0)" stroke="none">2,4065</tspan></tspan></tspan></text>
 <text class="TextShape"><tspan class="TextParagraph" font-family="Liberation Sans, sans-serif" font-size="353px" font-weight="400"><tspan class="TextPosition" x="12978" y="8024"><tspan fill="rgb(0,0,0)" stroke="none">2,407</tspan></tspan></tspan></text>
 <text class="TextShape"><tspan class="TextParagraph" font-family="Liberation Sans, sans-serif" font-size="353px" font-weight="400"><tspan class="TextPosition" x="14944" y="8024"><tspan fill="rgb(0,0,0)" stroke="none">2,4075</tspan></tspan></tspan></text>
 <text class="TextShape"><tspan class="TextParagraph" font-family="Liberation Sans, sans-serif" font-size="353px" font-weight="400"><tspan class="TextPosition" x="17094" y="8024"><tspan fill="rgb(0,0,0)" stroke="none">2,408</tspan></tspan></tspan></text>
 <text class="TextShape"><tspan class="TextParagraph" font-family="Liberation Sans, sans-serif" font-size="353px" font-weight="400"><tspan class="TextPosition" x="19060" y="8024"><tspan fill="rgb(0,0,0)" stroke="none">2,4085</tspan></tspan></tspan></text>
 <text class="TextShape"><tspan class="TextParagraph" font-family="Liberation Sans, sans-serif" font-size="353px" font-weight="400"><tspan class="TextPosition" x="21209" y="8024"><tspan fill="rgb(0,0,0)" stroke="none">2,409</tspan></tspan></tspan></text>
 <text class="TextShape"><tspan class="TextParagraph" font-family="Liberation Sans, sans-serif" font-size="353px" font-weight="400"><tspan class="TextPosition" x="1461" y="7577"><tspan fill="rgb(0,0,0)" stroke="none">0,063325</tspan></tspan></tspan></text>
 <text class="TextShape"><tspan class="TextParagraph" font-family="Liberation Sans, sans-serif" font-size="353px" font-weight="400"><tspan class="TextPosition" x="1646" y="6398"><tspan fill="rgb(0,0,0)" stroke="none">0,06333</tspan></tspan></tspan></text>
 <text class="TextShape"><tspan class="TextParagraph" font-family="Liberation Sans, sans-serif" font-size="353px" font-weight="400"><tspan class="TextPosition" x="1461" y="5219"><tspan fill="rgb(0,0,0)" stroke="none">0,063335</tspan></tspan></tspan></text>
 <text class="TextShape"><tspan class="TextParagraph" font-family="Liberation Sans, sans-serif" font-size="353px" font-weight="400"><tspan class="TextPosition" x="1646" y="4040"><tspan fill="rgb(0,0,0)" stroke="none">0,06334</tspan></tspan></tspan></text>
 <text class="TextShape"><tspan class="TextParagraph" font-family="Liberation Sans, sans-serif" font-size="353px" font-weight="400"><tspan class="TextPosition" x="1461" y="2861"><tspan fill="rgb(0,0,0)" stroke="none">0,063345</tspan></tspan></tspan></text>
 <text class="TextShape"><tspan class="TextParagraph" font-family="Liberation Sans, sans-serif" font-size="353px" font-weight="400"><tspan class="TextPosition" x="1646" y="1682"><tspan fill="rgb(0,0,0)" stroke="none">0,06335</tspan></tspan></tspan></text>
 <text class="TextShape"><tspan class="TextParagraph" font-family="Liberation Sans, sans-serif" font-size="353px" font-weight="400"><tspan class="TextPosition" x="1461" y="503"><tspan fill="rgb(0,0,0)" stroke="none">0,063355</tspan></tspan></tspan></text>
 <text class="TextShape"><tspan class="TextParagraph" font-family="Liberation Sans, sans-serif" font-size="318px" font-weight="400"><tspan class="TextPosition" x="11666" y="8676"><tspan fill="rgb(0,0,0)" stroke="none">b</tspan></tspan></tspan></text>
 <text class="TextShape" transform="rotate(-90 837 5494)"><tspan class="TextParagraph" font-family="Liberation Sans, sans-serif" font-size="318px" font-weight="400"><tspan class="TextPosition" x="837" y="5494"><tspan fill="rgb(0,0,0)" stroke="none">Commulative Error</tspan></tspan></tspan></text>
</svg>