<?xml version="1.0" encoding="UTF-8"?>
<!DOCTYPE svg PUBLIC "-//W3C//DTD SVG 1.1//EN" "http://www.w3.org/Graphics/SVG/1.1/DTD/svg11.dtd">
<svg width="225mm" height="93mm" viewBox="0 0 22500 9300" version="1.1" xmlns="http://www.w3.org/2000/svg" xmlns:xlink="http://www.w3.org/1999/xlink" stroke-width="28.222" stroke-linejoin="round" xml:space="preserve">
 <path fill="rgb(255,255,255)" stroke="none" d="M 11255,9270 L 0,9270 0,0 22510,0 22510,9270 11255,9270 Z"/>
 <path fill="none" stroke="rgb(179,179,179)" stroke-linejoin="round" d="M 12176,7905 L 2717,7905 2717,384 21636,384 21636,7905 12176,7905 Z"/>
 <path fill="none" stroke="rgb(179,179,179)" stroke-linejoin="round" d="M 2717,383 L 2717,7904"/>
 <path fill="none" stroke="rgb(179,179,179)" stroke-linejoin="round" d="M 4819,383 L 4819,7904"/>
 <path fill="none" stroke="rgb(179,179,179)" stroke-linejoin="round" d="M 6921,383 L 6921,7904"/>
 <path fill="none" stroke="rgb(179,179,179)" stroke-linejoin="round" d="M 9023,383 L 9023,7904"/>
 <path fill="none" stroke="rgb(179,179,179)" stroke-linejoin="round" d="M 11125,383 L 11125,7904"/>
 <path fill="none" stroke="rgb(179,179,179)" stroke-linejoin="round" d="M 13227,383 L 13227,7904"/>
 <path fill="none" stroke="rgb(179,179,179)" stroke-linejoin="round" d="M 15329,383 L 15329,7904"/>
 <path fill="none" stroke="rgb(179,179,179)" stroke-linejoin="round" d="M 17431,383 L 17431,7904"/>
 <path fill="none" stroke="rgb(179,179,179)" stroke-linejoin="round" d="M 19533,383 L 19533,7904"/>
 <path fill="none" stroke="rgb(179,179,179)" stroke-linejoin="round" d="M 21636,383 L 21636,7904"/>
 <path fill="none" stroke="rgb(179,179,179)" stroke-linejoin="round" d="M 21636,7904 L 2717,7904"/>
 <path fill="none" stroke="rgb(179,179,179)" stroke-linejoin="round" d="M 21636,7151 L 2717,7151"/>
 <path fill="none" stroke="rgb(179,179,179)" stroke-linejoin="round" d="M 21636,6399 L 2717,6399"/>
 <path fill="none" stroke="rgb(179,179,179)" stroke-linejoin="round" d="M 21636,5647 L 2717,5647"/>
 <path fill="none" stroke="rgb(179,179,179)" stroke-linejoin="round" d="M 21636,4895 L 2717,4895"/>
 <path fill="none" stroke="rgb(179,179,179)" stroke-linejoin="round" d="M 21636,4144 L 2717,4144"/>
 <path fill="none" stroke="rgb(179,179,179)" stroke-linejoin="round" d="M 21636,3391 L 2717,3391"/>
 <path fill="none" stroke="rgb(179,179,179)" stroke-linejoin="round" d="M 21636,2639 L 2717,2639"/>
 <path fill="none" stroke="rgb(179,179,179)" stroke-linejoin="round" d="M 21636,1887 L 2717,1887"/>
 <path fill="none" stroke="rgb(179,179,179)" stroke-linejoin="round" d="M 21636,1135 L 2717,1135"/>
 <path fill="none" stroke="rgb(179,179,179)" stroke-linejoin="round" d="M 21636,383 L 2717,383"/>
 <path fill="none" stroke="rgb(179,179,179)" stroke-linejoin="round" d="M 2717,7301 L 2717,7151"/>
 <path fill="none" stroke="rgb(179,179,179)" stroke-linejoin="round" d="M 2717,7301 L 2717,7151"/>
 <path fill="none" stroke="rgb(179,179,179)" stroke-linejoin="round" d="M 4819,7301 L 4819,7151"/>
 <path fill="none" stroke="rgb(179,179,179)" stroke-linejoin="round" d="M 4819,7301 L 4819,7151"/>
 <path fill="none" stroke="rgb(179,179,179)" stroke-linejoin="round" d="M 6921,7301 L 6921,7151"/>
 <path fill="none" stroke="rgb(179,179,179)" stroke-linejoin="round" d="M 6921,7301 L 6921,7151"/>
 <path fill="none" stroke="rgb(179,179,179)" stroke-linejoin="round" d="M 9023,7301 L 9023,7151"/>
 <path fill="none" stroke="rgb(179,179,179)" stroke-linejoin="round" d="M 9023,7301 L 9023,7151"/>
 <path fill="none" stroke="rgb(179,179,179)" stroke-linejoin="round" d="M 11125,7301 L 11125,7151"/>
 <path fill="none" stroke="rgb(179,179,179)" stroke-linejoin="round" d="M 11125,7301 L 11125,7151"/>
 <path fill="none" stroke="rgb(179,179,179)" stroke-linejoin="round" d="M 13227,7301 L 13227,7151"/>
 <path fill="none" stroke="rgb(179,179,179)" stroke-linejoin="round" d="M 13227,7301 L 13227,7151"/>
 <path fill="none" stroke="rgb(179,179,179)" stroke-linejoin="round" d="M 15329,7301 L 15329,7151"/>
 <path fill="none" stroke="rgb(179,179,179)" stroke-linejoin="round" d="M 15329,7301 L 15329,7151"/>
 <path fill="none" stroke="rgb(179,179,179)" stroke-linejoin="round" d="M 17431,7301 L 17431,7151"/>
 <path fill="none" stroke="rgb(179,179,179)" stroke-linejoin="round" d="M 17431,7301 L 17431,7151"/>
 <path fill="none" stroke="rgb(179,179,179)" stroke-linejoin="round" d="M 19533,7301 L 19533,7151"/>
 <path fill="none" stroke="rgb(179,179,179)" stroke-linejoin="round" d="M 19533,7301 L 19533,7151"/>
 <path fill="none" stroke="rgb(179,179,179)" stroke-linejoin="round" d="M 21636,7301 L 21636,7151"/>
 <path fill="none" stroke="rgb(179,179,179)" stroke-linejoin="round" d="M 21636,7301 L 21636,7151"/>
 <path fill="none" stroke="rgb(179,179,179)" stroke-linejoin="round" d="M 2717,7151 L 21636,7151"/>
 <path fill="none" stroke="rgb(179,179,179)" stroke-linejoin="round" d="M 2567,7904 L 2717,7904"/>
 <path fill="none" stroke="rgb(179,179,179)" stroke-linejoin="round" d="M 2567,7904 L 2717,7904"/>
 <path fill="none" stroke="rgb(179,179,179)" stroke-linejoin="round" d="M 2567,7151 L 2717,7151"/>
 <path fill="none" stroke="rgb(179,179,179)" stroke-linejoin="round" d="M 2567,7151 L 2717,7151"/>
 <path fill="none" stroke="rgb(179,179,179)" stroke-linejoin="round" d="M 2567,6399 L 2717,6399"/>
 <path fill="none" stroke="rgb(179,179,179)" stroke-linejoin="round" d="M 2567,6399 L 2717,6399"/>
 <path fill="none" stroke="rgb(179,179,179)" stroke-linejoin="round" d="M 2567,5647 L 2717,5647"/>
 <path fill="none" stroke="rgb(179,179,179)" stroke-linejoin="round" d="M 2567,5647 L 2717,5647"/>
 <path fill="none" stroke="rgb(179,179,179)" stroke-linejoin="round" d="M 2567,4895 L 2717,4895"/>
 <path fill="none" stroke="rgb(179,179,179)" stroke-linejoin="round" d="M 2567,4895 L 2717,4895"/>
 <path fill="none" stroke="rgb(179,179,179)" stroke-linejoin="round" d="M 2567,4144 L 2717,4144"/>
 <path fill="none" stroke="rgb(179,179,179)" stroke-linejoin="round" d="M 2567,4144 L 2717,4144"/>
 <path fill="none" stroke="rgb(179,179,179)" stroke-linejoin="round" d="M 2567,3391 L 2717,3391"/>
 <path fill="none" stroke="rgb(179,179,179)" stroke-linejoin="round" d="M 2567,3391 L 2717,3391"/>
 <path fill="none" stroke="rgb(179,179,179)" stroke-linejoin="round" d="M 2567,2639 L 2717,2639"/>
 <path fill="none" stroke="rgb(179,179,179)" stroke-linejoin="round" d="M 2567,2639 L 2717,2639"/>
 <path fill="none" stroke="rgb(179,179,179)" stroke-linejoin="round" d="M 2567,1887 L 2717,1887"/>
 <path fill="none" stroke="rgb(179,179,179)" stroke-linejoin="round" d="M 2567,1887 L 2717,1887"/>
 <path fill="none" stroke="rgb(179,179,179)" stroke-linejoin="round" d="M 2567,1135 L 2717,1135"/>
 <path fill="none" stroke="rgb(179,179,179)" stroke-linejoin="round" d="M 2567,1135 L 2717,1135"/>
 <path fill="none" stroke="rgb(179,179,179)" stroke-linejoin="round" d="M 2567,383 L 2717,383"/>
 <path fill="none" stroke="rgb(179,179,179)" stroke-linejoin="round" d="M 2567,383 L 2717,383"/>
 <path fill="none" stroke="rgb(179,179,179)" stroke-linejoin="round" d="M 2717,7904 L 2717,383"/>
 <path fill="none" stroke="rgb(0,69,134)" stroke-width="80" stroke-linejoin="round" d="M 4853,1093 L 4886,1094 4920,1096 4954,1097 4988,1099 5022,1100 5056,1101 5089,1103 5123,1104 5157,1106 5191,1107 5225,1109 5258,1110 5292,1112 5326,1113 5360,1115 5393,1116 5427,1117 5461,1119 5495,1120 5527,1381 5559,1382 5591,1384 5624,1385 5656,1387 5688,1388 5720,1389 5752,1391 5785,1392 5817,1393 5849,1395 5881,1396 5913,1398 5945,1399 5978,1400 6010,1402 6042,1403 6074,1405 6106,1406 6138,1407 6170,1409 6202,1410 6235,1411 6265,1672 6296,1673 6326,1675 6357,1676 6388,1677 6418,1679 6449,1680 6479,1681 6510,1683 6541,1684 6571,1685 6602,1686 6632,1688 6663,1689 6693,1690 6724,1692 6754,1693 6785,1694 6815,1696 6846,1697 6876,1698 6907,1700 6937,1701 6966,1961 6995,1962 7024,1964 7053,1965 7082,1966 7111,1967 7140,1969 7169,1970 7198,1971 7227,1972 7256,1974 7285,1975 7314,1976 7343,1977 7372,1979 7401,1980 7430,1981 7458,1982 7487,1983 7516,1985 7545,1986 7574,1987 7603,1988 7632,1990 7661,1991 7688,2251 7715,2252 7743,2253 7770,2255 7798,2256 7825,2257 7852,2258 7880,2259 7907,2260 7934,2262 7962,2263 7989,2264 8016,2265 8044,2266 8071,2267 8098,2269 8125,2270 8153,2271 8180,2272 8207,2273 8235,2274 8262,2276 8289,2277 8316,2278 8344,2279 8371,2280 8398,2281 8424,2541 8450,2542 8475,2544 8501,2545 8527,2546 8553,2547 8578,2548 8604,2549 8630,2550 8655,2551 8681,2552 8707,2553 8733,2555 8758,2556 8784,2557 8810,2558 8835,2559 8861,2560 8887,2561 8912,2562 8938,2563 8964,2564 8989,2566 9015,2567 9040,2568 9066,2569 9092,2570 9117,2571 9143,2572 9167,2832 9191,2833 9215,2834 9239,2835 9264,2836 9288,2837 9312,2838 9336,2839 9360,2840 9384,2841 9408,2842 9432,2843 9456,2844 9480,2845 9505,2846 9529,2847 9553,2848 9577,2849 9601,2850 9625,2851 9649,2852 9673,2854 9697,2855 9721,2856 9745,2857 9769,2858 9793,2859 9817,2860 9841,2861 9865,2862 9887,3121 9910,3122 9932,3123 9955,3124 9977,3125 10000,3126 10022,3127 10045,3128 10067,3129 10090,3130 10112,3131 10135,3132 10157,3133 10180,3134 10202,3135 10225,3136 10247,3137 10270,3138 10292,3138 10314,3139 10337,3140 10359,3141 10382,3142 10404,3143 10427,3144 10449,3145 10471,3146 10494,3147 10516,3148 10538,3149 10561,3150 10583,3151 10604,3410 10625,3411 10646,3412 10667,3413 10688,3414 10709,3415 10730,3416 10750,3417 10771,3417 10792,3418 10813,3419 10834,3420 10855,3421 10876,3422 10896,3423 10917,3424 10938,3425 10959,3425 10980,3426 11001,3427 11021,3428 11042,3429 11063,3430 11084,3431 11105,3432 11125,3432 11146,3433 11167,3434 11188,3435 11209,3436 11229,3437 11250,3438 11270,3439 11291,3440 11311,3440 11331,3700 11350,3700 11369,3701 11388,3702 11408,3703 11427,3704 11446,3705 11466,3705 11485,3706 11504,3707 11523,3708 11543,3709 11562,3710 11581,3710 11600,3711 11620,3712 11639,3713 11658,3714 11677,3714 11696,3715 11716,3716 11735,3717 11754,3718 11773,3719 11792,3719 11812,3720 11831,3721 11850,3722 11869,3723 11888,3723 11907,3724 11927,3725 11946,3726 11965,3727 11984,3728 12003,3728 12022,3729 12041,3730 12059,3989 12077,3990 12094,3990 12112,3991 12130,3992 12147,3993 12165,3993 12183,3994 12200,3995 12218,3996 12236,3996 12253,3997 12271,3998 12289,3999 12306,3999 12324,4000 12341,4001 12359,4002 12377,4002 12394,4003 12412,4004 12429,4005 12447,4005 12465,4006 12482,4007 12500,4008 12517,4008 12535,4009 12553,4010 12570,4011 12588,4011 12605,4012 12623,4013 12640,4014 12658,4014 12675,4015 12693,4016 12710,4017 12728,4017 12745,4018 12763,4019 12780,4020 12797,4278 12813,4279 12829,4280 12845,4280 12861,4281 12877,4282 12893,4282 12909,4283 12925,4284 12941,4284 12957,4285 12973,4286 12989,4287 13005,4287 13021,4288 13037,4289 13053,4289 13069,4290 13085,4291 13101,4291 13117,4292 13133,4293 13149,4293 13165,4294 13181,4295 13197,4295 13213,4296 13229,4297 13245,4297 13261,4298 13277,4299 13293,4299 13309,4300 13325,4301 13340,4301 13356,4302 13372,4303 13388,4303 13404,4304 13420,4305 13436,4306 13452,4306 13468,4307 13484,4308 13500,4308 13515,4309 13530,4568 13544,4568 13559,4569 13573,4569 13588,4570 13602,4571 13617,4571 13631,4572 13645,4572 13660,4573 13674,4574 13689,4574 13703,4575 13717,4575 13732,4576 13746,4577 13761,4577 13775,4578 13789,4578 13804,4579 13818,4580 13833,4580 13847,4581 13861,4582 13876,4582 13890,4583 13904,4583 13919,4584 13933,4585 13947,4585 13962,4586 13976,4586 13990,4587 14005,4588 14019,4588 14033,4589 14048,4589 14062,4590 14076,4591 14091,4591 14105,4592 14119,4593 14134,4593 14148,4594 14162,4594 14177,4595 14191,4596 14205,4596 14219,4597 14234,4597 14248,4598 14261,4855 14274,4856 14286,4856 14299,4857 14312,4858 14325,4858 14338,4859 14351,4859 14363,4860 14376,4860 14389,4861 14402,4861 14415,4862 14427,4862 14453,4864 14466,4864 14479,4865 14491,4865 14504,4866 14517,4866 14530,4867 14542,4867 14555,4868 14568,4868 14581,4869 14593,4869 14606,4870 14632,4871 14644,4872 14657,4872 14670,4873 14683,4873 14695,4874 14708,4874 14721,4875 14734,4875 14746,4876 14759,4876 14772,4877 14784,4878 14810,4879 14822,4879 14835,4880 14848,4880 14861,4881 14873,4881 14886,4882 14899,4882 14911,4883 14924,4883 14937,4884 14949,4885 14975,4886 14986,5144 14997,5144 15008,5145 15020,5145 15042,5146 15053,5147 15064,5147 15076,5148 15087,5148 15109,5149 15120,5150 15131,5150 15143,5150 15165,5151 15176,5152 15187,5152 15199,5153 15221,5154 15232,5154 15243,5155 15254,5155 15266,5156 15288,5157 15299,5157 15310,5158 15321,5158 15344,5159 15355,5159 15366,5160 15377,5160 15399,5161 15410,5162 15421,5162 15433,5163 15444,5163 15466,5164 15477,5165 15488,5165 15499,5166 15521,5166 15532,5167 15544,5167 15555,5168 15577,5169 15588,5169 15599,5170 15610,5170 15621,5171 15632,5171 15643,5172 15654,5172 15665,5173 15687,5173 15699,5174 15710,5174 15719,5432 15738,5433 15748,5434 15767,5434 15777,5435 15796,5436 15806,5436 15815,5437 15834,5437 15844,5438 15863,5439 15873,5439 15892,5440 15901,5440 15911,5441 15930,5441 15940,5442 15959,5443 15968,5443 15987,5444 15997,5444 16006,5445 16025,5445 16035,5446 16054,5447 16064,5447 16083,5448 16092,5448 16111,5449 16121,5449 16130,5450 16149,5451 16159,5451 16178,5452 16187,5452 16206,5453 16216,5453 16235,5454 16244,5455 16254,5455 16273,5456 16282,5456 16301,5457 16310,5457 16329,5458 16339,5459 16358,5459 16367,5460 16386,5461 16396,5461 16405,5461 16424,5462 16433,5463 16451,5721 16467,5722 16475,5722 16491,5723 16507,5723 16515,5724 16531,5724 16547,5725 16562,5726 16570,5726 16586,5727 16602,5727 16618,5728 16626,5728 16642,5729 16658,5730 16666,5730 16682,5731 16698,5731 16714,5732 16721,5732 16737,5733 16753,5734 16769,5734 16777,5735 16793,5735 16809,5736 16816,5736 16832,5737 16848,5738 16864,5738 16872,5739 16888,5739 16903,5740 16919,5741 16927,5741 16935,5741 16943,5742 16959,5742 16974,5743 16982,5743 16998,5744 17014,5745 17029,5745 17037,5746 17053,5746 17069,5747 17084,5748 17092,5748 17108,5749 17123,5749 17139,5750 17147,5750 17163,5751 17178,5752 17185,6009 17191,6010 17204,6010 17217,6011 17229,6011 17242,6012 17261,6012 17274,6013 17287,6014 17299,6014 17312,6015 17325,6015 17344,6016 17356,6016 17369,6017 17382,6018 17394,6018 17407,6019 17426,6019 17439,6020 17451,6020 17464,6021 17477,6022 17489,6022 17508,6023 17521,6023 17533,6024 17546,6024 17559,6025 17578,6026 17590,6026 17603,6027 17615,6027 17628,6028 17640,6028 17659,6029 17672,6030 17684,6030 17697,6031 17709,6031 17728,6032 17741,6033 17753,6033 17766,6034 17778,6034 17797,6035 17809,6036 17822,6036 17834,6037 17847,6037 17865,6038 17878,6038 17890,6039 17903,6039 17914,6297 17918,6297 17933,6298 17942,6298 17957,6299 17971,6300 17985,6300 17999,6301 18014,6301 18028,6302 18042,6303 18056,6303 18066,6304 18080,6304 18094,6305 18108,6305 18123,6306 18137,6307 18151,6307 18165,6308 18179,6308 18193,6309 18207,6310 18217,6310 18231,6311 18245,6311 18254,6312 18259,6312 18273,6312 18287,6313 18301,6314 18315,6314 18329,6315 18343,6315 18357,6316 18371,6316 18385,6317 18399,6318 18413,6318 18427,6319 18437,6319 18451,6320 18465,6320 18478,6321 18492,6322 18506,6322 18520,6323 18534,6323 18548,6324 18562,6324 18571,6325 18576,6325 18589,6326 18603,6326 18617,6327 18631,6327 18644,6395 18648,6585 18657,6586 18673,6586 18685,6587 18698,6587 18714,6588 18726,6589 18739,6589 18755,6590 18767,6590 18780,6591 18795,6591 18808,6592 18824,6593 18836,6593 18849,6594 18864,6594 18877,6595 18892,6595 18905,6596 18920,6597 18932,6597 18945,6598 18960,6598 18973,6599 18988,6600 19000,6600 19016,6601 19028,6601 19043,6602 19056,6602 19071,6603 19080,6603 19083,6604 19096,6604 19111,6605 19123,6605 19138,6606 19150,6606 19166,6607 19178,6608 19193,6608 19208,6609 19220,6609 19235,6610 19248,6611 19263,6611 19275,6612 19290,6612 19302,6613 19317,6613 19329,6614 19344,6615 19359,6615 19371,6616 19378,6873 19385,6873 19399,6874 19413,6874 19426,6875 19439,6876 19453,6876 19466,6877 19480,6877 19494,6878 19508,6878 19521,6879 19535,6880 19549,6880 19562,6881 19576,6881 19591,6882 19593,6882 19605,6883 19618,6883 19632,6884 19645,6884 19658,6885 19673,6885 19687,6886 19700,6887 19713,6887 19728,6888 19741,6888 19755,6889 19769,6889 19782,6890 19797,6891 19810,6891 19825,6892 19838,6892 19851,6893 19865,6893 19879,6894 19892,6895 19907,6895 19910,6895 19920,6896 19934,6896 19948,6897 19961,6897 19975,6898 19989,6899 20002,6899 20016,6900 20030,6900 20044,6901 20057,6901 20071,6902 20084,6903 20098,6903 20112,6904 20112,7161"/>
 <text class="TextShape"><tspan class="TextParagraph" font-family="Liberation Sans, sans-serif" font-size="353px" font-weight="400"><tspan class="TextPosition" x="2201" y="7719"><tspan fill="rgb(0,0,0)" stroke="none">2,4045</tspan></tspan></tspan></text>
 <text class="TextShape"><tspan class="TextParagraph" font-family="Liberation Sans, sans-serif" font-size="353px" font-weight="400"><tspan class="TextPosition" x="4395" y="7719"><tspan fill="rgb(0,0,0)" stroke="none">2,405</tspan></tspan></tspan></text>
 <text class="TextShape"><tspan class="TextParagraph" font-family="Liberation Sans, sans-serif" font-size="353px" font-weight="400"><tspan class="TextPosition" x="6405" y="7719"><tspan fill="rgb(0,0,0)" stroke="none">2,4055</tspan></tspan></tspan></text>
 <text class="TextShape"><tspan class="TextParagraph" font-family="Liberation Sans, sans-serif" font-size="353px" font-weight="400"><tspan class="TextPosition" x="8599" y="7719"><tspan fill="rgb(0,0,0)" stroke="none">2,406</tspan></tspan></tspan></text>
 <text class="TextShape"><tspan class="TextParagraph" font-family="Liberation Sans, sans-serif" font-size="353px" font-weight="400"><tspan class="TextPosition" x="10609" y="7719"><tspan fill="rgb(0,0,0)" stroke="none">2,4065</tspan></tspan></tspan></text>
 <text class="TextShape"><tspan class="TextParagraph" font-family="Liberation Sans, sans-serif" font-size="353px" font-weight="400"><tspan class="TextPosition" x="12804" y="7719"><tspan fill="rgb(0,0,0)" stroke="none">2,407</tspan></tspan></tspan></text>
 <text class="TextShape"><tspan class="TextParagraph" font-family="Liberation Sans, sans-serif" font-size="353px" font-weight="400"><tspan class="TextPosition" x="14814" y="7719"><tspan fill="rgb(0,0,0)" stroke="none">2,4075</tspan></tspan></tspan></text>
 <text class="TextShape"><tspan class="TextParagraph" font-family="Liberation Sans, sans-serif" font-size="353px" font-weight="400"><tspan class="TextPosition" x="17008" y="7719"><tspan fill="rgb(0,0,0)" stroke="none">2,408</tspan></tspan></tspan></text>
 <text class="TextShape"><tspan class="TextParagraph" font-family="Liberation Sans, sans-serif" font-size="353px" font-weight="400"><tspan class="TextPosition" x="19018" y="7719"><tspan fill="rgb(0,0,0)" stroke="none">2,4085</tspan></tspan></tspan></text>
 <text class="TextShape"><tspan class="TextParagraph" font-family="Liberation Sans, sans-serif" font-size="353px" font-weight="400"><tspan class="TextPosition" x="21213" y="7719"><tspan fill="rgb(0,0,0)" stroke="none">2,409</tspan></tspan></tspan></text>
 <text class="TextShape"><tspan class="TextParagraph" font-family="Liberation Sans, sans-serif" font-size="353px" font-weight="400"><tspan class="TextPosition" x="1462" y="8025"><tspan fill="rgb(0,0,0)" stroke="none">-1E-06</tspan></tspan></tspan></text>
 <text class="TextShape"><tspan class="TextParagraph" font-family="Liberation Sans, sans-serif" font-size="353px" font-weight="400"><tspan class="TextPosition" x="2282" y="7272"><tspan fill="rgb(0,0,0)" stroke="none">0</tspan></tspan></tspan></text>
 <text class="TextShape"><tspan class="TextParagraph" font-family="Liberation Sans, sans-serif" font-size="353px" font-weight="400"><tspan class="TextPosition" x="1567" y="6520"><tspan fill="rgb(0,0,0)" stroke="none">1E-06</tspan></tspan></tspan></text>
 <text class="TextShape"><tspan class="TextParagraph" font-family="Liberation Sans, sans-serif" font-size="353px" font-weight="400"><tspan class="TextPosition" x="1567" y="5768"><tspan fill="rgb(0,0,0)" stroke="none">2E-06</tspan></tspan></tspan></text>
 <text class="TextShape"><tspan class="TextParagraph" font-family="Liberation Sans, sans-serif" font-size="353px" font-weight="400"><tspan class="TextPosition" x="1567" y="5016"><tspan fill="rgb(0,0,0)" stroke="none">3E-06</tspan></tspan></tspan></text>
 <text class="TextShape"><tspan class="TextParagraph" font-family="Liberation Sans, sans-serif" font-size="353px" font-weight="400"><tspan class="TextPosition" x="1567" y="4264"><tspan fill="rgb(0,0,0)" stroke="none">4E-06</tspan></tspan></tspan></text>
 <text class="TextShape"><tspan class="TextParagraph" font-family="Liberation Sans, sans-serif" font-size="353px" font-weight="400"><tspan class="TextPosition" x="1567" y="3511"><tspan fill="rgb(0,0,0)" stroke="none">5E-06</tspan></tspan></tspan></text>
 <text class="TextShape"><tspan class="TextParagraph" font-family="Liberation Sans, sans-serif" font-size="353px" font-weight="400"><tspan class="TextPosition" x="1567" y="2759"><tspan fill="rgb(0,0,0)" stroke="none">6E-06</tspan></tspan></tspan></text>
 <text class="TextShape"><tspan class="TextParagraph" font-family="Liberation Sans, sans-serif" font-size="353px" font-weight="400"><tspan class="TextPosition" x="1567" y="2007"><tspan fill="rgb(0,0,0)" stroke="none">7E-06</tspan></tspan></tspan></text>
 <text class="TextShape"><tspan class="TextParagraph" font-family="Liberation Sans, sans-serif" font-size="353px" font-weight="400"><tspan class="TextPosition" x="1567" y="1255"><tspan fill="rgb(0,0,0)" stroke="none">8E-06</tspan></tspan></tspan></text>
 <text class="TextShape"><tspan class="TextParagraph" font-family="Liberation Sans, sans-serif" font-size="353px" font-weight="400"><tspan class="TextPosition" x="1567" y="503"><tspan fill="rgb(0,0,0)" stroke="none">9E-06</tspan></tspan></tspan></text>
 <text class="TextShape"><tspan class="TextParagraph" font-family="Liberation Sans, sans-serif" font-size="318px" font-weight="400"><tspan class="TextPosition" x="11668" y="8676"><tspan fill="rgb(0,0,0)" stroke="none">b</tspan></tspan></tspan></text>
 <text class="TextShape" transform="rotate(-90 837 5771)"><tspan class="TextParagraph" font-family="Liberation Sans, sans-serif" font-size="318px" font-weight="400"><tspan class="TextPosition" x="837" y="5771"><tspan fill="rgb(0,0,0)" stroke="none">Step towards Optimum</tspan></tspan></tspan></text>
</svg>